<?xml version="1.0" encoding="utf-8"?>
<!-- Generator: Adobe Illustrator 22.0.0, SVG Export Plug-In . SVG Version: 6.00 Build 0)  -->
<svg version="1.1" id="Layer_1" xmlns="http://www.w3.org/2000/svg" xmlns:xlink="http://www.w3.org/1999/xlink" x="0px" y="0px"
	 viewBox="0 0 80 80" style="enable-background:new 0 0 80 80;" xml:space="preserve">
<style type="text/css">
	.st0{fill:#FFFFFF;}
	.st1{fill:#E7C27F;}
	.st2{fill:#777777;}
</style>
<image style="display:none;overflow:visible;" width="217" height="96" xlink:href="foranhtuong.png"  transform="matrix(0.75 0 0 0.75 -42 -1)">
</image>
<g>
	<polygon class="st0" points="1.5,55.2 0.8,55.2 0.8,56 1.5,56 1.5,55.2 	"/>
</g>
<g>
	<polygon class="st0" points="1.5,56.7 0.8,56.7 0.8,57.5 1.5,57.5 1.5,56.7 	"/>
</g>
<g>
	<g>
		<path class="st1" d="M22.9,48.9h13.2v-8.2c0-0.2,0-0.4,0.1-0.5v-0.4h0c0.2-1.6,0.7-3.1,1.5-4.4h-1.6V31h4.4v1.6
			c1.3-0.8,2.8-1.3,4.3-1.5V31h1h3.4h4.5h0.1v-4.1H22.9V48.9z M26.9,31h4.4v4.4h-4.4V31z M26.9,39.8h4.4v4.4h-4.4V39.8z"/>
		<path class="st1" d="M50.3,4c-5.1,0-9.2,4.1-9.2,9.2H15.9c-5.9,0-10.6,4.8-10.6,10.6v37.7h30.8v-8.3H18.4V22.4h39.7V31H60h1.8
			l1.3,1.3l4.4,4.4l3.8,3.8V18.7v-5.5V4H50.3z M66.9,13.2H45.5c0-2.7,2.2-4.8,4.8-4.8h16.6V13.2z"/>
	</g>
	<path class="st2" d="M71.3,46.8l-1-1l-5.9-5.9L60,35.4h-1.8h-4.4v0.1l-0.1-0.1h-7.9c-2.9,0-5.3,2.4-5.3,5.3v3.5h0v4.8v4.4v8.3v9.1
		c0,2.9,2.4,5.3,5.3,5.3h23.6c2.9,0,5.3-2.4,5.3-5.3V56.4v-6.2L71.3,46.8z M67.2,48.9h-5c-0.5,0-0.9-0.4-0.9-0.9v-5L67.2,48.9z
		 M70.3,70.7c0,0.5-0.4,0.9-0.9,0.9H45.8c-0.5,0-0.9-0.4-0.9-0.9v-9.1v-8.3v-4.4v-4.8v-3.4c0-0.5,0.4-0.9,0.9-0.9h3.4h4.6h3.1v8.1
		c0,1.3,0.5,2.5,1.3,3.4c1,1.1,2.4,1.9,4,1.9h8.1v8.3V70.7z"/>
</g>
</svg>
