<?xml version="1.0" encoding="utf-8"?>
<!-- Generator: Adobe Illustrator 22.0.0, SVG Export Plug-In . SVG Version: 6.00 Build 0)  -->
<svg version="1.1" id="Layer_1" xmlns="http://www.w3.org/2000/svg" xmlns:xlink="http://www.w3.org/1999/xlink" x="0px" y="0px"
	 viewBox="0 0 80 80" style="enable-background:new 0 0 80 80;" xml:space="preserve">
<style type="text/css">
	.st0{fill:#185397;}
	.st1{fill:#FFFFFF;}
</style>
<image style="display:none;overflow:visible;" width="217" height="96" xlink:href="foranhtuong.png"  transform="matrix(0.75 0 0 0.75 -42 -1)">
</image>
<g>
	<polygon class="st0" points="16.9,33.2 22,36.6 27.1,40 40,48.7 52.9,40 58,36.6 63.1,33.2 68.2,29.8 73.3,26.3 40,4 6.7,26.3 
		11.8,29.8 	"/>
	<polygon class="st0" points="63.1,40 58,43.4 40,55.5 22,43.4 16.9,40 11.8,36.6 6.7,40 11.8,43.4 16.9,46.8 40,62.3 63.1,46.8 
		68.2,43.4 73.3,40 68.2,36.6 	"/>
	<polygon class="st0" points="40,69.2 11.8,50.2 6.7,53.7 40,76 73.3,53.7 68.2,50.2 	"/>
</g>
<polygon class="st1" points="-63.7,61.3 -63.7,61.3 -63.7,61.3 "/>
<g>
	<polygon class="st1" points="1.5,55.2 0.8,55.2 0.8,56 1.5,56 1.5,55.2 	"/>
</g>
<g>
	<polygon class="st1" points="1.5,56.7 0.8,56.7 0.8,57.5 1.5,57.5 1.5,56.7 	"/>
</g>
</svg>
